<svg width="50" height="51" viewBox="0 0 50 51" fill="none" xmlns="http://www.w3.org/2000/svg">
<path d="M27.1762 0.207031H22.9491C22.5734 0.207031 22.3855 0.394901 22.3855 0.770641V22.8923H1.39271C1.01697 22.8923 0.829102 23.0802 0.829102 23.4559V27.683C0.829102 28.0587 1.01697 28.2466 1.39271 28.2466H22.3855V50.3683C22.3855 50.744 22.5734 50.9319 22.9491 50.9319H27.1762C27.5519 50.9319 27.7398 50.744 27.7398 50.3683V28.2466H48.7359C49.1116 28.2466 49.2995 28.0587 49.2995 27.683V23.4559C49.2995 23.0802 49.1116 22.8923 48.7359 22.8923H27.7398V0.770641C27.7398 0.394901 27.5519 0.207031 27.1762 0.207031Z" fill="#8C8C8C"/>
</svg>
