<svg width="12" height="12" viewBox="0 0 12 12" fill="none" xmlns="http://www.w3.org/2000/svg">
<path d="M6.00002 0.75C3.1008 0.75 0.750015 3.10078 0.750015 6C0.750015 8.89922 3.1008 11.25 6.00002 11.25C8.89924 11.25 11.25 8.89922 11.25 6C11.25 3.10078 8.89924 0.75 6.00002 0.75ZM6.00002 10.3594C3.59298 10.3594 1.64064 8.40703 1.64064 6C1.64064 3.59297 3.59298 1.64063 6.00002 1.64063C8.40705 1.64063 10.3594 3.59297 10.3594 6C10.3594 8.40703 8.40705 10.3594 6.00002 10.3594Z" fill="#C12828"/>
<path d="M5.43733 8.0625C5.43733 8.21169 5.4966 8.35476 5.60209 8.46025C5.70757 8.56574 5.85065 8.625 5.99983 8.625C6.14902 8.625 6.29209 8.56574 6.39758 8.46025C6.50307 8.35476 6.56233 8.21169 6.56233 8.0625C6.56233 7.91332 6.50307 7.77024 6.39758 7.66475C6.29209 7.55926 6.14902 7.5 5.99983 7.5C5.85065 7.5 5.70757 7.55926 5.60209 7.66475C5.4966 7.77024 5.43733 7.91332 5.43733 8.0625ZM5.71858 6.75H6.28108C6.33265 6.75 6.37483 6.70781 6.37483 6.65625V3.46875C6.37483 3.41719 6.33265 3.375 6.28108 3.375H5.71858C5.66702 3.375 5.62483 3.41719 5.62483 3.46875V6.65625C5.62483 6.70781 5.66702 6.75 5.71858 6.75Z" fill="#C12828"/>
</svg>
