<svg xmlns="http://www.w3.org/2000/svg" width="38" height="44" viewBox="0 0 38 44">
  <defs>
    <style>
      .cls-1 {
        fill-rule: evenodd;
      }
    </style>
  </defs>
  <path id="Security_question" data-name="Security question" class="cls-1" d="M98,2840c15,0,16,4,16,4v13.3a19.989,19.989,0,0,1-10.195,17.43L98,2878l-5.805-3.27A19.989,19.989,0,0,1,82,2857.3V2844s0-4,16-4m0-3c-7.106,0-12.267.78-15.342,2.32C79.264,2841.01,79,2843.33,79,2844v13.3a23.034,23.034,0,0,0,11.724,20.05l5.805,3.26a2.968,2.968,0,0,0,2.942,0l5.805-3.26A23.033,23.033,0,0,0,117,2857.3V2844a2.979,2.979,0,0,0-.09-0.73c-0.585-2.34-3.821-6.27-18.91-6.27h0Zm-0.545,28A1.443,1.443,0,0,1,96,2863.57c0-2.84,2.965-5.27,5-6.57,1.026-.65,2.824-3.03,2.824-3.59,0-3.65-.729-4.91-5.824-4.91-5.346,0-4.823,4.54-4.823,5a1.591,1.591,0,0,1-3.177,0c0-2.59,1.276-8,8-8,8.5,0,9,4.69,9,7.5,0,2.19-2.528,5.51-4.317,6.65-1.923,1.23-3.774,2.74-3.774,3.92A1.442,1.442,0,0,1,97.455,2865ZM99,2869.5a1.5,1.5,0,1,1-1.5-1.5A1.5,1.5,0,0,1,99,2869.5Z" transform="translate(-79 -2837)"/>
</svg>
