<svg width="60" height="60" viewBox="0 0 60 60" fill="none" xmlns="http://www.w3.org/2000/svg">
<path d="M57.8571 6.41638H2.14286C0.957589 6.41638 0 7.37397 0 8.55924V51.4164C0 52.6017 0.957589 53.5592 2.14286 53.5592H57.8571C59.0424 53.5592 60 52.6017 60 51.4164V8.55924C60 7.37397 59.0424 6.41638 57.8571 6.41638ZM55.1786 13.836V48.7378H4.82143V13.836L2.97321 12.3963L5.60491 9.0146L8.47098 11.2445H51.5357L54.4018 9.0146L57.0335 12.3963L55.1786 13.836ZM51.5357 11.2378L30 27.9789L8.46428 11.2378L5.59821 9.0079L2.96652 12.3896L4.81473 13.8293L27.6897 31.615C28.3476 32.1261 29.1569 32.4036 29.99 32.4036C30.823 32.4036 31.6323 32.1261 32.2902 31.615L55.1786 13.836L57.0268 12.3963L54.3951 9.0146L51.5357 11.2378Z" fill="#246BFD"/>
</svg>
