<svg width="14" height="16" viewBox="0 0 14 16" fill="none" xmlns="http://www.w3.org/2000/svg">
<path d="M13.0725 7.08982L3.72802 7.11385L3.71725 2.92751C3.71576 2.35002 4.18365 1.87972 4.76114 1.87823L9.39603 1.86631C9.97352 1.86482 10.4438 2.33271 10.4453 2.9102L10.4486 4.18106C10.4488 4.26329 10.5162 4.3304 10.5985 4.33019L11.6451 4.3275C11.7273 4.32728 11.7944 4.25983 11.7942 4.1776L11.7909 2.90674C11.7875 1.58543 10.7139 0.5173 9.39257 0.520699L4.75768 0.53262C3.43637 0.536018 2.36824 1.60965 2.37164 2.93097L2.38241 7.11732L1.11155 7.12058C0.780755 7.12143 0.514189 7.38938 0.51504 7.72017L0.533498 14.8968C0.534349 15.2276 0.80229 15.4941 1.13309 15.4933L13.0941 15.4625C13.4249 15.4617 13.6914 15.1937 13.6906 14.8629L13.6721 7.68633C13.6713 7.35554 13.4033 7.08897 13.0725 7.08982ZM12.3431 14.1188L1.87719 14.1457L1.86257 8.46427L12.3284 8.43735L12.3431 14.1188ZM6.58014 11.5359L6.58269 12.5264C6.5829 12.6086 6.65036 12.6757 6.73259 12.6755L7.48015 12.6736C7.56238 12.6734 7.62949 12.6059 7.62928 12.5237L7.62673 11.5332C7.78072 11.422 7.89546 11.2649 7.95445 11.0843C8.01344 10.9038 8.01362 10.7092 7.95498 10.5286C7.89634 10.3479 7.78189 10.1906 7.62812 10.0791C7.47434 9.96768 7.28917 9.90789 7.09925 9.90838C6.90934 9.90887 6.72448 9.96961 6.57128 10.0818C6.41808 10.1941 6.30444 10.352 6.24673 10.533C6.18902 10.7139 6.1902 10.9085 6.25012 11.0887C6.31003 11.2689 6.42559 11.4255 6.58014 11.5359V11.5359Z" fill="#1F1F1F"/>
</svg>
