<svg width="12" height="12" viewBox="0 0 12 12" fill="none" xmlns="http://www.w3.org/2000/svg">
<g clip-path="url(#clip0_698_42173)">
<rect width="12" height="12" fill="white"/>
<path d="M6 0.75C3.10078 0.75 0.75 3.10078 0.75 6C0.75 8.89922 3.10078 11.25 6 11.25C8.89922 11.25 11.25 8.89922 11.25 6C11.25 3.10078 8.89922 0.75 6 0.75ZM6 10.3594C3.59297 10.3594 1.64063 8.40703 1.64063 6C1.64063 3.59297 3.59297 1.64063 6 1.64063C8.40703 1.64063 10.3594 3.59297 10.3594 6C10.3594 8.40703 8.40703 10.3594 6 10.3594Z" fill="#C12828"/>
<path d="M5.43732 8.0625C5.43732 8.21169 5.49658 8.35476 5.60207 8.46025C5.70756 8.56574 5.85063 8.625 5.99982 8.625C6.149 8.625 6.29208 8.56574 6.39756 8.46025C6.50305 8.35476 6.56232 8.21169 6.56232 8.0625C6.56232 7.91332 6.50305 7.77024 6.39756 7.66475C6.29208 7.55926 6.149 7.5 5.99982 7.5C5.85063 7.5 5.70756 7.55926 5.60207 7.66475C5.49658 7.77024 5.43732 7.91332 5.43732 8.0625ZM5.71857 6.75H6.28107C6.33263 6.75 6.37482 6.70781 6.37482 6.65625V3.46875C6.37482 3.41719 6.33263 3.375 6.28107 3.375H5.71857C5.667 3.375 5.62482 3.41719 5.62482 3.46875V6.65625C5.62482 6.70781 5.667 6.75 5.71857 6.75Z" fill="#C12828"/>
</g>
<defs>
<clipPath id="clip0_698_42173">
<rect width="12" height="12" fill="white"/>
</clipPath>
</defs>
</svg>
