<svg width="14" height="14" viewBox="0 0 14 14" fill="none" xmlns="http://www.w3.org/2000/svg">
<path d="M13.7225 6.59773C12.2412 3.47742 10.0021 1.9071 7.00058 1.9071C3.99745 1.9071 1.75995 3.47742 0.278704 6.59929C0.21929 6.7251 0.188477 6.8625 0.188477 7.00164C0.188477 7.14077 0.21929 7.27817 0.278704 7.40398C1.75995 10.5243 3.99902 12.0946 7.00058 12.0946C10.0037 12.0946 12.2412 10.5243 13.7225 7.40242C13.8428 7.14929 13.8428 6.85554 13.7225 6.59773ZM7.00058 10.9696C4.48027 10.9696 2.63495 9.69148 1.33339 7.00085C2.63495 4.31023 4.48027 3.0321 7.00058 3.0321C9.52089 3.0321 11.3662 4.31023 12.6678 7.00085C11.3678 9.69148 9.52245 10.9696 7.00058 10.9696ZM6.93808 4.25085C5.41933 4.25085 4.18808 5.4821 4.18808 7.00085C4.18808 8.5196 5.41933 9.75085 6.93808 9.75085C8.45683 9.75085 9.68808 8.5196 9.68808 7.00085C9.68808 5.4821 8.45683 4.25085 6.93808 4.25085ZM6.93808 8.75085C5.97089 8.75085 5.18808 7.96804 5.18808 7.00085C5.18808 6.03367 5.97089 5.25085 6.93808 5.25085C7.90527 5.25085 8.68808 6.03367 8.68808 7.00085C8.68808 7.96804 7.90527 8.75085 6.93808 8.75085Z" fill="#1F1F1F"/>
</svg>
