<svg width="37" height="37" viewBox="0 0 37 37" fill="none" xmlns="http://www.w3.org/2000/svg">
<path d="M13.7008 17.2984C12.1095 17.2984 10.5834 16.6663 9.45814 15.5411C8.33292 14.4159 7.70078 12.8897 7.70078 11.2984V6.49844C7.70078 6.18018 7.82721 5.87495 8.05225 5.64991C8.2773 5.42487 8.58252 5.29844 8.90078 5.29844H10.1008C10.419 5.29844 10.7243 5.17201 10.9493 4.94697C11.1744 4.72192 11.3008 4.4167 11.3008 4.09844C11.3008 3.78018 11.1744 3.47495 10.9493 3.24991C10.7243 3.02487 10.419 2.89844 10.1008 2.89844H8.90078C7.946 2.89844 7.03033 3.27772 6.3552 3.95285C5.68007 4.62798 5.30078 5.54366 5.30078 6.49844V11.2984C5.30232 12.6541 5.63291 13.9892 6.26414 15.1889C6.89537 16.3887 7.80839 17.4173 8.92478 18.1864C9.99738 19.1321 10.8672 20.2852 11.4818 21.5763C12.0965 22.8674 12.4431 24.2697 12.5008 25.6984C12.5008 27.9263 13.3858 30.0628 14.9611 31.6381C16.5364 33.2134 18.673 34.0984 20.9008 34.0984C23.1286 34.0984 25.2652 33.2134 26.8405 31.6381C28.4158 30.0628 29.3008 27.9263 29.3008 25.6984V24.3304C30.432 24.0384 31.4178 23.3438 32.0735 22.3768C32.7292 21.4099 33.0097 20.237 32.8625 19.078C32.7153 17.9191 32.1505 16.8536 31.2739 16.0813C30.3973 15.3089 29.2691 14.8829 28.1008 14.8829C26.9325 14.8829 25.8043 15.3089 24.9277 16.0813C24.0511 16.8536 23.4862 17.9191 23.339 19.078C23.1918 20.237 23.4724 21.4099 24.1281 22.3768C24.7838 23.3438 25.7696 24.0384 26.9008 24.3304V25.6984C26.9008 27.2897 26.2686 28.8159 25.1434 29.9411C24.0182 31.0663 22.4921 31.6984 20.9008 31.6984C19.3095 31.6984 17.7834 31.0663 16.6581 29.9411C15.5329 28.8159 14.9008 27.2897 14.9008 25.6984C14.9615 24.2679 15.3119 22.8646 15.9307 21.5734C16.5495 20.2822 17.4238 19.13 18.5008 18.1864C19.6127 17.4146 20.5211 16.3849 21.148 15.1853C21.775 13.9857 22.1019 12.652 22.1008 11.2984V6.49844C22.1008 5.54366 21.7215 4.62798 21.0464 3.95285C20.3712 3.27772 19.4556 2.89844 18.5008 2.89844H17.3008C16.9825 2.89844 16.6773 3.02487 16.4523 3.24991C16.2272 3.47495 16.1008 3.78018 16.1008 4.09844C16.1008 4.4167 16.2272 4.72192 16.4523 4.94697C16.6773 5.17201 16.9825 5.29844 17.3008 5.29844H18.5008C18.819 5.29844 19.1243 5.42487 19.3493 5.64991C19.5744 5.87495 19.7008 6.18018 19.7008 6.49844V11.2984C19.7008 12.0864 19.5456 12.8666 19.2441 13.5945C18.9425 14.3225 18.5006 14.9839 17.9434 15.5411C17.3863 16.0982 16.7248 16.5402 15.9969 16.8417C15.2689 17.1432 14.4887 17.2984 13.7008 17.2984ZM28.1008 22.0984C27.4643 22.0984 26.8538 21.8456 26.4037 21.3955C25.9536 20.9454 25.7008 20.335 25.7008 19.6984C25.7008 19.0619 25.9536 18.4515 26.4037 18.0014C26.8538 17.5513 27.4643 17.2984 28.1008 17.2984C28.7373 17.2984 29.3478 17.5513 29.7978 18.0014C30.2479 18.4515 30.5008 19.0619 30.5008 19.6984C30.5008 20.335 30.2479 20.9454 29.7978 21.3955C29.3478 21.8456 28.7373 22.0984 28.1008 22.0984Z" fill="#1F5BD7"/>
</svg>
