<svg width="37" height="37" viewBox="0 0 37 37" fill="none" xmlns="http://www.w3.org/2000/svg">
<path d="M11.75 21.875H14V24.125H11.75V21.875ZM17.375 21.875H19.625V24.125H17.375V21.875ZM23 21.875H25.25V24.125H23V21.875Z" fill="#1F5BD7"/>
<path d="M31.4375 33.125V6.6875H26.375V1.625H10.625V6.6875H5.5625V33.125H1.625V35.375H35.375V33.125H31.4375ZM12.875 3.875H24.125V15.125H12.875V3.875ZM29.1875 33.125H19.625V28.625H17.375V33.125H7.8125V8.9375H10.625V17.375H26.375V8.9375H29.1875V33.125Z" fill="#1F5BD7"/>
<path d="M19.625 6.125H17.375V8.375H15.125V10.625H17.375V12.875H19.625V10.625H21.875V8.375H19.625V6.125Z" fill="#1F5BD7"/>
</svg>
